<?xml version="1.0" encoding="UTF-8"?>
<svg id="uuid-3f99f0f4-334f-4eb7-b8c7-55d738a48fbd" xmlns="http://www.w3.org/2000/svg" viewBox="0 0 960 960">
  <style>
    @media (prefers-color-scheme: dark) {
    rect { fill: #64554a; }
    path { fill: #d0ccc8; }
    }
  </style>
  <rect x="-41.5" y="-43.5" width="1043" height="1047" style="fill:#a78d7b;"/>
  <path d="M704.38,277.83h-74.84v-37.47c0-41.37-35.73-44.36-77.15-44.36h-149.49c-41.42,0-72.61,2.99-72.61,44.36v37.47h-74.63c-41.42,0-74.86,33.44-74.86,74.58v336.68c0,41.42,33.44,74.91,74.86,74.91h448.73c41.42,0,74.84-33.49,74.84-74.91v-336.68c0-41.14-33.42-74.58-74.84-74.58h0ZM309.68,257.49c0-13.14-10.65-23.79-23.8-23.79h-24.81c-13.1,0-24,10.65-24,23.79v8.9h72.61v-8.9h0ZM704.38,389.9c-20.61,0-37.44-16.67-37.44-37.49s16.82-37.42,37.44-37.42,37.44,16.88,37.44,37.42-16.89,37.49-37.44,37.49h0ZM479.98,330.11c22.57,0,44.4,4.47,64.25,12.67h0c20.56,8.67,38.93,21.08,54.26,36.41h.26c15.38,15.66,27.79,33.96,36.2,54.58h0c8.41,19.8,12.88,41.63,12.88,64.2s-4.47,44.39-12.88,64.2h0c-8.41,20.6-20.82,38.92-36.2,54.3h-.26v.26c-15.33,15.33-33.7,27.74-54.26,36.2h0c-19.85,8.41-41.68,12.88-64.25,12.88s-44.35-4.47-64.2-12.88h0c-20.55-8.46-38.92-20.88-54.51-36.2v-.26h0c-15.39-15.38-27.79-33.7-36.47-54.3h0c-8.14-19.81-12.62-41.64-12.62-64.2s4.47-44.41,12.62-64.2h0c8.68-20.61,21.08-38.91,36.47-54.58h0c15.6-15.33,33.96-27.74,54.51-36.41h0c19.86-8.2,41.42-12.67,64.2-12.67h0ZM560.1,417.9c-10.69-10.65-23.05-19.12-36.72-24.54-13.37-5.7-28.02-8.67-43.39-8.67s-30.24,2.97-43.39,8.67c-13.63,5.42-26.24,13.89-36.68,24.54-10.65,10.38-19.06,23.05-24.75,36.67-5.48,13.16-8.47,27.79-8.47,43.4s2.99,29.96,8.47,43.38c5.69,13.63,14.1,26.04,24.75,36.67,10.44,10.45,23.06,18.86,36.68,24.54,13.15,5.49,27.79,8.69,43.39,8.69s30.02-3.2,43.39-8.69c13.68-5.68,26.04-14.1,36.72-24.54,10.38-10.64,18.86-23.05,24.56-36.67,5.42-13.42,8.4-28,8.4-43.38s-2.97-30.24-8.4-43.4c-5.7-13.63-14.18-26.3-24.56-36.67h0Z" style="fill:#fff; fill-rule:evenodd;"/>
</svg>